<mxfile host="app.diagrams.net" agent="Mozilla/5.0 (Windows NT 10.0; Win64; x64) AppleWebKit/537.36 (KHTML, like Gecko) Chrome/131.0.0.0 Safari/537.36 Edg/131.0.0.0" version="26.0.2">
  <diagram name="第 1 页" id="MUjQQaZR9NAU4UTYEStK">
    <mxGraphModel dx="1744" dy="954" grid="1" gridSize="10" guides="1" tooltips="1" connect="1" arrows="1" fold="1" page="1" pageScale="1" pageWidth="827" pageHeight="1169" math="0" shadow="0">
      <root>
        <mxCell id="0" />
        <mxCell id="1" parent="0" />
        <mxCell id="coFCOLkyZQD_x_XOVwAo-2" value="&lt;font face=&quot;Times New Roman&quot; style=&quot;font-size: 18px;&quot;&gt;Query&lt;/font&gt;" style="rounded=0;whiteSpace=wrap;html=1;" vertex="1" parent="1">
          <mxGeometry x="80" y="500" width="80" height="40" as="geometry" />
        </mxCell>
        <mxCell id="coFCOLkyZQD_x_XOVwAo-3" value="&lt;font face=&quot;Times New Roman&quot; style=&quot;font-size: 18px;&quot;&gt;Key1&lt;/font&gt;" style="rounded=0;whiteSpace=wrap;html=1;" vertex="1" parent="1">
          <mxGeometry x="210" y="420" width="70" height="40" as="geometry" />
        </mxCell>
        <mxCell id="coFCOLkyZQD_x_XOVwAo-5" value="&lt;font face=&quot;Times New Roman&quot; style=&quot;font-size: 18px;&quot;&gt;Key2&lt;/font&gt;" style="rounded=0;whiteSpace=wrap;html=1;" vertex="1" parent="1">
          <mxGeometry x="320" y="420" width="70" height="40" as="geometry" />
        </mxCell>
        <mxCell id="coFCOLkyZQD_x_XOVwAo-6" value="&lt;font face=&quot;Times New Roman&quot; style=&quot;font-size: 18px;&quot;&gt;Key3&lt;/font&gt;" style="rounded=0;whiteSpace=wrap;html=1;" vertex="1" parent="1">
          <mxGeometry x="430" y="420" width="70" height="40" as="geometry" />
        </mxCell>
        <mxCell id="coFCOLkyZQD_x_XOVwAo-7" value="&lt;font face=&quot;Times New Roman&quot; style=&quot;font-size: 18px;&quot;&gt;Key4&lt;/font&gt;" style="rounded=0;whiteSpace=wrap;html=1;" vertex="1" parent="1">
          <mxGeometry x="540" y="420" width="70" height="40" as="geometry" />
        </mxCell>
        <mxCell id="coFCOLkyZQD_x_XOVwAo-43" style="edgeStyle=orthogonalEdgeStyle;rounded=0;orthogonalLoop=1;jettySize=auto;html=1;entryX=0.5;entryY=0;entryDx=0;entryDy=0;" edge="1" parent="1" source="coFCOLkyZQD_x_XOVwAo-9" target="coFCOLkyZQD_x_XOVwAo-14">
          <mxGeometry relative="1" as="geometry" />
        </mxCell>
        <mxCell id="coFCOLkyZQD_x_XOVwAo-9" value="&lt;font style=&quot;font-size: 18px;&quot;&gt;F(Q,K)&lt;/font&gt;" style="strokeWidth=1;html=1;shape=mxgraph.flowchart.start_1;whiteSpace=wrap;" vertex="1" parent="1">
          <mxGeometry x="210" y="500" width="70" height="40" as="geometry" />
        </mxCell>
        <mxCell id="coFCOLkyZQD_x_XOVwAo-44" style="edgeStyle=orthogonalEdgeStyle;rounded=0;orthogonalLoop=1;jettySize=auto;html=1;entryX=0.5;entryY=0;entryDx=0;entryDy=0;" edge="1" parent="1" source="coFCOLkyZQD_x_XOVwAo-10" target="coFCOLkyZQD_x_XOVwAo-15">
          <mxGeometry relative="1" as="geometry" />
        </mxCell>
        <mxCell id="coFCOLkyZQD_x_XOVwAo-10" value="&lt;font style=&quot;font-size: 18px;&quot;&gt;F(Q,K)&lt;/font&gt;" style="strokeWidth=1;html=1;shape=mxgraph.flowchart.start_1;whiteSpace=wrap;" vertex="1" parent="1">
          <mxGeometry x="320" y="500" width="70" height="40" as="geometry" />
        </mxCell>
        <mxCell id="coFCOLkyZQD_x_XOVwAo-45" style="edgeStyle=orthogonalEdgeStyle;rounded=0;orthogonalLoop=1;jettySize=auto;html=1;entryX=0.5;entryY=0;entryDx=0;entryDy=0;" edge="1" parent="1" source="coFCOLkyZQD_x_XOVwAo-11" target="coFCOLkyZQD_x_XOVwAo-16">
          <mxGeometry relative="1" as="geometry" />
        </mxCell>
        <mxCell id="coFCOLkyZQD_x_XOVwAo-11" value="&lt;font style=&quot;font-size: 18px;&quot;&gt;F(Q,K)&lt;/font&gt;" style="strokeWidth=1;html=1;shape=mxgraph.flowchart.start_1;whiteSpace=wrap;" vertex="1" parent="1">
          <mxGeometry x="430" y="500" width="70" height="40" as="geometry" />
        </mxCell>
        <mxCell id="coFCOLkyZQD_x_XOVwAo-46" style="edgeStyle=orthogonalEdgeStyle;rounded=0;orthogonalLoop=1;jettySize=auto;html=1;entryX=0.5;entryY=0;entryDx=0;entryDy=0;" edge="1" parent="1" source="coFCOLkyZQD_x_XOVwAo-12" target="coFCOLkyZQD_x_XOVwAo-17">
          <mxGeometry relative="1" as="geometry" />
        </mxCell>
        <mxCell id="coFCOLkyZQD_x_XOVwAo-12" value="&lt;font style=&quot;font-size: 18px;&quot;&gt;F(Q,K)&lt;/font&gt;" style="strokeWidth=1;html=1;shape=mxgraph.flowchart.start_1;whiteSpace=wrap;" vertex="1" parent="1">
          <mxGeometry x="540" y="500" width="70" height="40" as="geometry" />
        </mxCell>
        <mxCell id="coFCOLkyZQD_x_XOVwAo-14" value="&lt;font face=&quot;Times New Roman&quot; style=&quot;font-size: 18px;&quot;&gt;S1&lt;/font&gt;" style="rounded=0;whiteSpace=wrap;html=1;" vertex="1" parent="1">
          <mxGeometry x="210" y="580" width="70" height="40" as="geometry" />
        </mxCell>
        <mxCell id="coFCOLkyZQD_x_XOVwAo-15" value="&lt;font face=&quot;Times New Roman&quot; style=&quot;font-size: 18px;&quot;&gt;S2&lt;/font&gt;" style="rounded=0;whiteSpace=wrap;html=1;" vertex="1" parent="1">
          <mxGeometry x="320" y="580" width="70" height="40" as="geometry" />
        </mxCell>
        <mxCell id="coFCOLkyZQD_x_XOVwAo-16" value="&lt;font face=&quot;Times New Roman&quot; style=&quot;font-size: 18px;&quot;&gt;S3&lt;/font&gt;" style="rounded=0;whiteSpace=wrap;html=1;" vertex="1" parent="1">
          <mxGeometry x="430" y="580" width="70" height="40" as="geometry" />
        </mxCell>
        <mxCell id="coFCOLkyZQD_x_XOVwAo-17" value="&lt;font face=&quot;Times New Roman&quot; style=&quot;font-size: 18px;&quot;&gt;S4&lt;/font&gt;" style="rounded=0;whiteSpace=wrap;html=1;" vertex="1" parent="1">
          <mxGeometry x="540" y="580" width="70" height="40" as="geometry" />
        </mxCell>
        <mxCell id="coFCOLkyZQD_x_XOVwAo-18" value="&lt;font face=&quot;Times New Roman&quot; style=&quot;font-size: 18px;&quot;&gt;类Softmax()归一化&lt;/font&gt;" style="rounded=0;whiteSpace=wrap;html=1;" vertex="1" parent="1">
          <mxGeometry x="210" y="660" width="400" height="40" as="geometry" />
        </mxCell>
        <mxCell id="coFCOLkyZQD_x_XOVwAo-19" value="&lt;font face=&quot;Times New Roman&quot; style=&quot;font-size: 18px;&quot;&gt;a1&lt;/font&gt;" style="rounded=0;whiteSpace=wrap;html=1;" vertex="1" parent="1">
          <mxGeometry x="210" y="740" width="70" height="40" as="geometry" />
        </mxCell>
        <mxCell id="coFCOLkyZQD_x_XOVwAo-20" value="&lt;font face=&quot;Times New Roman&quot; style=&quot;font-size: 18px;&quot;&gt;a2&lt;/font&gt;" style="rounded=0;whiteSpace=wrap;html=1;" vertex="1" parent="1">
          <mxGeometry x="320" y="740" width="70" height="40" as="geometry" />
        </mxCell>
        <mxCell id="coFCOLkyZQD_x_XOVwAo-21" value="&lt;font face=&quot;Times New Roman&quot; style=&quot;font-size: 18px;&quot;&gt;a3&lt;/font&gt;" style="rounded=0;whiteSpace=wrap;html=1;" vertex="1" parent="1">
          <mxGeometry x="430" y="740" width="70" height="40" as="geometry" />
        </mxCell>
        <mxCell id="coFCOLkyZQD_x_XOVwAo-22" value="&lt;font face=&quot;Times New Roman&quot; style=&quot;font-size: 18px;&quot;&gt;a4&lt;/font&gt;" style="rounded=0;whiteSpace=wrap;html=1;" vertex="1" parent="1">
          <mxGeometry x="540" y="740" width="70" height="40" as="geometry" />
        </mxCell>
        <mxCell id="coFCOLkyZQD_x_XOVwAo-23" value="&lt;font face=&quot;Times New Roman&quot; style=&quot;font-size: 28px;&quot;&gt;&lt;b style=&quot;line-height: 100%;&quot;&gt;*&lt;/b&gt;&lt;/font&gt;" style="strokeWidth=1;html=1;shape=mxgraph.flowchart.start_1;whiteSpace=wrap;align=center;" vertex="1" parent="1">
          <mxGeometry x="210" y="820" width="70" height="40" as="geometry" />
        </mxCell>
        <mxCell id="coFCOLkyZQD_x_XOVwAo-24" value="&lt;b style=&quot;font-family: &amp;quot;Times New Roman&amp;quot;; font-size: 28px; line-height: 28px;&quot;&gt;*&lt;/b&gt;" style="strokeWidth=1;html=1;shape=mxgraph.flowchart.start_1;whiteSpace=wrap;" vertex="1" parent="1">
          <mxGeometry x="320" y="820" width="70" height="40" as="geometry" />
        </mxCell>
        <mxCell id="coFCOLkyZQD_x_XOVwAo-25" value="&lt;b style=&quot;font-family: &amp;quot;Times New Roman&amp;quot;; font-size: 28px; line-height: 28px;&quot;&gt;*&lt;/b&gt;" style="strokeWidth=1;html=1;shape=mxgraph.flowchart.start_1;whiteSpace=wrap;" vertex="1" parent="1">
          <mxGeometry x="430" y="820" width="70" height="40" as="geometry" />
        </mxCell>
        <mxCell id="coFCOLkyZQD_x_XOVwAo-26" value="&lt;b style=&quot;font-family: &amp;quot;Times New Roman&amp;quot;; font-size: 28px; line-height: 28px;&quot;&gt;*&lt;/b&gt;" style="strokeWidth=1;html=1;shape=mxgraph.flowchart.start_1;whiteSpace=wrap;" vertex="1" parent="1">
          <mxGeometry x="540" y="820" width="70" height="40" as="geometry" />
        </mxCell>
        <mxCell id="coFCOLkyZQD_x_XOVwAo-27" value="&lt;font face=&quot;Times New Roman&quot; style=&quot;font-size: 18px;&quot;&gt;Value1&lt;/font&gt;" style="rounded=0;whiteSpace=wrap;html=1;" vertex="1" parent="1">
          <mxGeometry x="210" y="900" width="70" height="40" as="geometry" />
        </mxCell>
        <mxCell id="coFCOLkyZQD_x_XOVwAo-28" value="&lt;font face=&quot;Times New Roman&quot; style=&quot;font-size: 18px;&quot;&gt;Value2&lt;/font&gt;" style="rounded=0;whiteSpace=wrap;html=1;" vertex="1" parent="1">
          <mxGeometry x="320" y="900" width="70" height="40" as="geometry" />
        </mxCell>
        <mxCell id="coFCOLkyZQD_x_XOVwAo-29" value="&lt;font face=&quot;Times New Roman&quot; style=&quot;font-size: 18px;&quot;&gt;Value3&lt;/font&gt;" style="rounded=0;whiteSpace=wrap;html=1;" vertex="1" parent="1">
          <mxGeometry x="430" y="900" width="70" height="40" as="geometry" />
        </mxCell>
        <mxCell id="coFCOLkyZQD_x_XOVwAo-30" value="&lt;font face=&quot;Times New Roman&quot; style=&quot;font-size: 18px;&quot;&gt;Value4&lt;/font&gt;" style="rounded=0;whiteSpace=wrap;html=1;" vertex="1" parent="1">
          <mxGeometry x="540" y="900" width="70" height="40" as="geometry" />
        </mxCell>
        <mxCell id="coFCOLkyZQD_x_XOVwAo-69" value="" style="rounded=0;orthogonalLoop=1;jettySize=auto;html=1;endArrow=none;endFill=0;startArrow=classic;startFill=1;" edge="1" parent="1" source="coFCOLkyZQD_x_XOVwAo-31" target="coFCOLkyZQD_x_XOVwAo-23">
          <mxGeometry relative="1" as="geometry" />
        </mxCell>
        <mxCell id="coFCOLkyZQD_x_XOVwAo-31" value="&lt;font face=&quot;Times New Roman&quot; style=&quot;font-size: 18px;&quot;&gt;Attention&lt;/font&gt;&lt;div&gt;&lt;font face=&quot;Times New Roman&quot; style=&quot;font-size: 18px;&quot;&gt;Value&lt;/font&gt;&lt;/div&gt;" style="rounded=0;whiteSpace=wrap;html=1;" vertex="1" parent="1">
          <mxGeometry x="80" y="820" width="80" height="40" as="geometry" />
        </mxCell>
        <mxCell id="coFCOLkyZQD_x_XOVwAo-32" value="" style="labelPosition=right;align=left;strokeWidth=1;shape=mxgraph.mockup.markup.curlyBrace;html=1;shadow=0;dashed=0;strokeColor=#999999;direction=south;" vertex="1" parent="1">
          <mxGeometry x="630" y="447.5" width="20" height="145" as="geometry" />
        </mxCell>
        <mxCell id="coFCOLkyZQD_x_XOVwAo-34" value="" style="labelPosition=right;align=left;strokeWidth=1;shape=mxgraph.mockup.markup.curlyBrace;html=1;shadow=0;dashed=0;strokeColor=#999999;direction=south;" vertex="1" parent="1">
          <mxGeometry x="630" y="607.5" width="20" height="142.5" as="geometry" />
        </mxCell>
        <mxCell id="coFCOLkyZQD_x_XOVwAo-35" value="" style="labelPosition=right;align=left;strokeWidth=1;shape=mxgraph.mockup.markup.curlyBrace;html=1;shadow=0;dashed=0;strokeColor=#999999;direction=south;" vertex="1" parent="1">
          <mxGeometry x="630" y="768.75" width="20" height="142.5" as="geometry" />
        </mxCell>
        <mxCell id="coFCOLkyZQD_x_XOVwAo-36" value="&lt;font style=&quot;font-size: 18px;&quot;&gt;第一阶段&lt;/font&gt;" style="text;html=1;align=center;verticalAlign=middle;resizable=0;points=[];autosize=1;strokeColor=none;fillColor=none;" vertex="1" parent="1">
          <mxGeometry x="645" y="500" width="100" height="40" as="geometry" />
        </mxCell>
        <mxCell id="coFCOLkyZQD_x_XOVwAo-37" value="&lt;font style=&quot;font-size: 18px;&quot;&gt;第二阶段&lt;/font&gt;" style="text;html=1;align=center;verticalAlign=middle;resizable=0;points=[];autosize=1;strokeColor=none;fillColor=none;" vertex="1" parent="1">
          <mxGeometry x="645" y="660" width="100" height="40" as="geometry" />
        </mxCell>
        <mxCell id="coFCOLkyZQD_x_XOVwAo-38" value="&lt;font style=&quot;font-size: 18px;&quot;&gt;第三阶段&lt;/font&gt;" style="text;html=1;align=center;verticalAlign=middle;resizable=0;points=[];autosize=1;strokeColor=none;fillColor=none;" vertex="1" parent="1">
          <mxGeometry x="645" y="820" width="100" height="40" as="geometry" />
        </mxCell>
        <mxCell id="coFCOLkyZQD_x_XOVwAo-39" style="edgeStyle=orthogonalEdgeStyle;rounded=0;orthogonalLoop=1;jettySize=auto;html=1;entryX=0.5;entryY=0;entryDx=0;entryDy=0;entryPerimeter=0;" edge="1" parent="1" source="coFCOLkyZQD_x_XOVwAo-3" target="coFCOLkyZQD_x_XOVwAo-9">
          <mxGeometry relative="1" as="geometry" />
        </mxCell>
        <mxCell id="coFCOLkyZQD_x_XOVwAo-40" style="edgeStyle=orthogonalEdgeStyle;rounded=0;orthogonalLoop=1;jettySize=auto;html=1;entryX=0.5;entryY=0;entryDx=0;entryDy=0;entryPerimeter=0;" edge="1" parent="1" source="coFCOLkyZQD_x_XOVwAo-5" target="coFCOLkyZQD_x_XOVwAo-10">
          <mxGeometry relative="1" as="geometry" />
        </mxCell>
        <mxCell id="coFCOLkyZQD_x_XOVwAo-41" style="edgeStyle=orthogonalEdgeStyle;rounded=0;orthogonalLoop=1;jettySize=auto;html=1;entryX=0.5;entryY=0;entryDx=0;entryDy=0;entryPerimeter=0;" edge="1" parent="1" source="coFCOLkyZQD_x_XOVwAo-6" target="coFCOLkyZQD_x_XOVwAo-11">
          <mxGeometry relative="1" as="geometry" />
        </mxCell>
        <mxCell id="coFCOLkyZQD_x_XOVwAo-42" style="edgeStyle=orthogonalEdgeStyle;rounded=0;orthogonalLoop=1;jettySize=auto;html=1;entryX=0.5;entryY=0;entryDx=0;entryDy=0;entryPerimeter=0;" edge="1" parent="1" source="coFCOLkyZQD_x_XOVwAo-7" target="coFCOLkyZQD_x_XOVwAo-12">
          <mxGeometry relative="1" as="geometry" />
        </mxCell>
        <mxCell id="coFCOLkyZQD_x_XOVwAo-48" style="rounded=0;orthogonalLoop=1;jettySize=auto;html=1;entryX=0.086;entryY=0.003;entryDx=0;entryDy=0;entryPerimeter=0;" edge="1" parent="1" source="coFCOLkyZQD_x_XOVwAo-14" target="coFCOLkyZQD_x_XOVwAo-18">
          <mxGeometry relative="1" as="geometry" />
        </mxCell>
        <mxCell id="coFCOLkyZQD_x_XOVwAo-50" style="rounded=0;orthogonalLoop=1;jettySize=auto;html=1;entryX=0.363;entryY=0;entryDx=0;entryDy=0;entryPerimeter=0;" edge="1" parent="1" source="coFCOLkyZQD_x_XOVwAo-15" target="coFCOLkyZQD_x_XOVwAo-18">
          <mxGeometry relative="1" as="geometry">
            <mxPoint x="360" y="650" as="targetPoint" />
          </mxGeometry>
        </mxCell>
        <mxCell id="coFCOLkyZQD_x_XOVwAo-51" style="edgeStyle=orthogonalEdgeStyle;rounded=0;orthogonalLoop=1;jettySize=auto;html=1;entryX=0.638;entryY=0;entryDx=0;entryDy=0;entryPerimeter=0;" edge="1" parent="1" source="coFCOLkyZQD_x_XOVwAo-16" target="coFCOLkyZQD_x_XOVwAo-18">
          <mxGeometry relative="1" as="geometry" />
        </mxCell>
        <mxCell id="coFCOLkyZQD_x_XOVwAo-52" style="edgeStyle=orthogonalEdgeStyle;rounded=0;orthogonalLoop=1;jettySize=auto;html=1;entryX=0.913;entryY=0;entryDx=0;entryDy=0;entryPerimeter=0;" edge="1" parent="1" source="coFCOLkyZQD_x_XOVwAo-17" target="coFCOLkyZQD_x_XOVwAo-18">
          <mxGeometry relative="1" as="geometry" />
        </mxCell>
        <mxCell id="coFCOLkyZQD_x_XOVwAo-53" style="edgeStyle=orthogonalEdgeStyle;rounded=0;orthogonalLoop=1;jettySize=auto;html=1;entryX=0.5;entryY=0;entryDx=0;entryDy=0;entryPerimeter=0;" edge="1" parent="1" source="coFCOLkyZQD_x_XOVwAo-19" target="coFCOLkyZQD_x_XOVwAo-23">
          <mxGeometry relative="1" as="geometry" />
        </mxCell>
        <mxCell id="coFCOLkyZQD_x_XOVwAo-54" style="edgeStyle=orthogonalEdgeStyle;rounded=0;orthogonalLoop=1;jettySize=auto;html=1;entryX=0.5;entryY=0;entryDx=0;entryDy=0;entryPerimeter=0;" edge="1" parent="1" source="coFCOLkyZQD_x_XOVwAo-20" target="coFCOLkyZQD_x_XOVwAo-24">
          <mxGeometry relative="1" as="geometry" />
        </mxCell>
        <mxCell id="coFCOLkyZQD_x_XOVwAo-55" style="edgeStyle=orthogonalEdgeStyle;rounded=0;orthogonalLoop=1;jettySize=auto;html=1;entryX=0.5;entryY=0;entryDx=0;entryDy=0;entryPerimeter=0;" edge="1" parent="1" source="coFCOLkyZQD_x_XOVwAo-21" target="coFCOLkyZQD_x_XOVwAo-25">
          <mxGeometry relative="1" as="geometry" />
        </mxCell>
        <mxCell id="coFCOLkyZQD_x_XOVwAo-56" style="edgeStyle=orthogonalEdgeStyle;rounded=0;orthogonalLoop=1;jettySize=auto;html=1;entryX=0.5;entryY=0;entryDx=0;entryDy=0;entryPerimeter=0;" edge="1" parent="1" source="coFCOLkyZQD_x_XOVwAo-22" target="coFCOLkyZQD_x_XOVwAo-26">
          <mxGeometry relative="1" as="geometry" />
        </mxCell>
        <mxCell id="coFCOLkyZQD_x_XOVwAo-57" style="edgeStyle=orthogonalEdgeStyle;rounded=0;orthogonalLoop=1;jettySize=auto;html=1;entryX=0.5;entryY=1;entryDx=0;entryDy=0;entryPerimeter=0;" edge="1" parent="1" source="coFCOLkyZQD_x_XOVwAo-30" target="coFCOLkyZQD_x_XOVwAo-26">
          <mxGeometry relative="1" as="geometry" />
        </mxCell>
        <mxCell id="coFCOLkyZQD_x_XOVwAo-58" style="edgeStyle=orthogonalEdgeStyle;rounded=0;orthogonalLoop=1;jettySize=auto;html=1;entryX=0.5;entryY=1;entryDx=0;entryDy=0;entryPerimeter=0;" edge="1" parent="1" source="coFCOLkyZQD_x_XOVwAo-29" target="coFCOLkyZQD_x_XOVwAo-25">
          <mxGeometry relative="1" as="geometry" />
        </mxCell>
        <mxCell id="coFCOLkyZQD_x_XOVwAo-59" style="edgeStyle=orthogonalEdgeStyle;rounded=0;orthogonalLoop=1;jettySize=auto;html=1;entryX=0.5;entryY=1;entryDx=0;entryDy=0;entryPerimeter=0;" edge="1" parent="1" source="coFCOLkyZQD_x_XOVwAo-28" target="coFCOLkyZQD_x_XOVwAo-24">
          <mxGeometry relative="1" as="geometry" />
        </mxCell>
        <mxCell id="coFCOLkyZQD_x_XOVwAo-60" style="edgeStyle=orthogonalEdgeStyle;rounded=0;orthogonalLoop=1;jettySize=auto;html=1;entryX=0.5;entryY=1;entryDx=0;entryDy=0;entryPerimeter=0;" edge="1" parent="1" source="coFCOLkyZQD_x_XOVwAo-27" target="coFCOLkyZQD_x_XOVwAo-23">
          <mxGeometry relative="1" as="geometry" />
        </mxCell>
        <mxCell id="coFCOLkyZQD_x_XOVwAo-61" style="rounded=0;orthogonalLoop=1;jettySize=auto;html=1;entryX=0.088;entryY=1;entryDx=0;entryDy=0;entryPerimeter=0;endArrow=none;endFill=0;startArrow=classic;startFill=1;" edge="1" parent="1" source="coFCOLkyZQD_x_XOVwAo-19" target="coFCOLkyZQD_x_XOVwAo-18">
          <mxGeometry relative="1" as="geometry" />
        </mxCell>
        <mxCell id="coFCOLkyZQD_x_XOVwAo-62" style="edgeStyle=orthogonalEdgeStyle;rounded=0;orthogonalLoop=1;jettySize=auto;html=1;entryX=0.363;entryY=1;entryDx=0;entryDy=0;entryPerimeter=0;startArrow=classic;startFill=1;endArrow=none;endFill=0;" edge="1" parent="1" source="coFCOLkyZQD_x_XOVwAo-20" target="coFCOLkyZQD_x_XOVwAo-18">
          <mxGeometry relative="1" as="geometry" />
        </mxCell>
        <mxCell id="coFCOLkyZQD_x_XOVwAo-63" style="edgeStyle=orthogonalEdgeStyle;rounded=0;orthogonalLoop=1;jettySize=auto;html=1;entryX=0.638;entryY=1;entryDx=0;entryDy=0;entryPerimeter=0;startArrow=classic;startFill=1;endArrow=none;endFill=0;" edge="1" parent="1" source="coFCOLkyZQD_x_XOVwAo-21" target="coFCOLkyZQD_x_XOVwAo-18">
          <mxGeometry relative="1" as="geometry" />
        </mxCell>
        <mxCell id="coFCOLkyZQD_x_XOVwAo-67" style="edgeStyle=orthogonalEdgeStyle;rounded=0;orthogonalLoop=1;jettySize=auto;html=1;entryX=0.913;entryY=1;entryDx=0;entryDy=0;entryPerimeter=0;startArrow=classic;startFill=1;endArrow=none;endFill=0;" edge="1" parent="1" source="coFCOLkyZQD_x_XOVwAo-22" target="coFCOLkyZQD_x_XOVwAo-18">
          <mxGeometry relative="1" as="geometry" />
        </mxCell>
        <mxCell id="coFCOLkyZQD_x_XOVwAo-68" style="rounded=0;orthogonalLoop=1;jettySize=auto;html=1;entryX=0;entryY=0.5;entryDx=0;entryDy=0;entryPerimeter=0;endArrow=none;endFill=0;" edge="1" parent="1" source="coFCOLkyZQD_x_XOVwAo-2" target="coFCOLkyZQD_x_XOVwAo-9">
          <mxGeometry relative="1" as="geometry" />
        </mxCell>
        <mxCell id="coFCOLkyZQD_x_XOVwAo-70" value="&lt;font style=&quot;font-size: 22px;&quot;&gt;＋&lt;/font&gt;" style="text;html=1;align=center;verticalAlign=middle;resizable=0;points=[];autosize=1;strokeColor=none;fillColor=none;" vertex="1" parent="1">
          <mxGeometry x="270" y="820" width="50" height="40" as="geometry" />
        </mxCell>
        <mxCell id="coFCOLkyZQD_x_XOVwAo-71" value="&lt;font style=&quot;font-size: 22px;&quot;&gt;＋&lt;/font&gt;" style="text;html=1;align=center;verticalAlign=middle;resizable=0;points=[];autosize=1;strokeColor=none;fillColor=none;" vertex="1" parent="1">
          <mxGeometry x="385" y="820" width="50" height="40" as="geometry" />
        </mxCell>
        <mxCell id="coFCOLkyZQD_x_XOVwAo-72" value="&lt;font style=&quot;font-size: 22px;&quot;&gt;＋&lt;/font&gt;" style="text;html=1;align=center;verticalAlign=middle;resizable=0;points=[];autosize=1;strokeColor=none;fillColor=none;" vertex="1" parent="1">
          <mxGeometry x="490" y="820" width="50" height="40" as="geometry" />
        </mxCell>
        <mxCell id="coFCOLkyZQD_x_XOVwAo-73" style="edgeStyle=orthogonalEdgeStyle;rounded=0;orthogonalLoop=1;jettySize=auto;html=1;entryX=0;entryY=0.5;entryDx=0;entryDy=0;entryPerimeter=0;endArrow=none;endFill=0;" edge="1" parent="1" source="coFCOLkyZQD_x_XOVwAo-9" target="coFCOLkyZQD_x_XOVwAo-10">
          <mxGeometry relative="1" as="geometry" />
        </mxCell>
        <mxCell id="coFCOLkyZQD_x_XOVwAo-74" style="edgeStyle=orthogonalEdgeStyle;rounded=0;orthogonalLoop=1;jettySize=auto;html=1;entryX=0;entryY=0.5;entryDx=0;entryDy=0;entryPerimeter=0;endArrow=none;endFill=0;" edge="1" parent="1" source="coFCOLkyZQD_x_XOVwAo-10" target="coFCOLkyZQD_x_XOVwAo-11">
          <mxGeometry relative="1" as="geometry" />
        </mxCell>
        <mxCell id="coFCOLkyZQD_x_XOVwAo-75" style="edgeStyle=orthogonalEdgeStyle;rounded=0;orthogonalLoop=1;jettySize=auto;html=1;entryX=0;entryY=0.5;entryDx=0;entryDy=0;entryPerimeter=0;endArrow=none;endFill=0;" edge="1" parent="1" source="coFCOLkyZQD_x_XOVwAo-11" target="coFCOLkyZQD_x_XOVwAo-12">
          <mxGeometry relative="1" as="geometry" />
        </mxCell>
      </root>
    </mxGraphModel>
  </diagram>
</mxfile>
